<?xml version="1.0" encoding="UTF-8"?>
<svg version="1.1" xmlns="http://www.w3.org/2000/svg" width="512" height="512">
<path d="M0 0 C1.44059138 -0.004078 2.88117962 -0.00942668 4.32176208 -0.01593018 C8.18699512 -0.02945406 12.05198448 -0.02437054 15.91722107 -0.01479292 C19.98095291 -0.00712971 24.04466566 -0.01425915 28.10839844 -0.01895142 C34.92012232 -0.02438478 41.73174809 -0.01727609 48.54345703 -0.00292969 C56.4087527 0.01344478 64.27381561 0.00806397 72.1391058 -0.0084089 C78.91566678 -0.02203043 85.69215782 -0.02394176 92.46872807 -0.0160929 C96.50634137 -0.01142677 100.54384523 -0.01076331 104.58145142 -0.02070236 C108.37046784 -0.02938139 112.15918377 -0.02333335 115.9481678 -0.00601959 C117.33567875 -0.00206198 118.72321512 -0.00317639 120.11071587 -0.00980759 C122.00837153 -0.01803973 123.90608267 -0.00587288 125.80371094 0.00723267 C126.86402527 0.00836374 127.9243396 0.00949482 129.01678467 0.01066017 C135.0842921 0.77549376 139.10118108 3.84350468 143.01171875 8.38818359 C146.91854976 13.91163433 146.66539882 19.87824642 146.01171875 26.38818359 C144.0589326 32.0409856 140.54314245 35.65873914 135.64123535 39.00767517 C130.21054501 41.07327084 125.01541801 40.81063058 119.25195312 40.78881836 C117.96658661 40.79579742 116.68122009 40.80277649 115.35690308 40.80996704 C112.56755118 40.82504653 109.77839026 40.83085724 106.98899841 40.82943916 C102.56551597 40.82739713 98.14228767 40.84703231 93.71887207 40.86961365 C85.1141389 40.91055365 76.50942585 40.92916641 67.90461731 40.94578552 C56.98147701 40.96814431 46.05839636 41.00202718 35.13535166 41.05298465 C30.75203947 41.07273571 26.36886003 41.08247494 21.9855051 41.08393681 C19.90503182 41.0860438 17.82462757 41.09263601 15.74417114 41.10110474 C13.22638814 41.11123246 10.70856299 41.11459401 8.19076538 41.10920715 C-10.17110671 41.21937156 -25.63798581 44.44115824 -39.98828125 56.38818359 C-40.63410156 56.92056641 -41.27992187 57.45294922 -41.9453125 58.00146484 C-54.18648484 69.13733946 -58.93030366 84.40252369 -59.98828125 100.38818359 C-60.1215047 104.7443266 -60.12775378 109.09682435 -60.12199402 113.45477295 C-60.12539235 115.36409823 -60.12539235 115.36409823 -60.12885934 117.31199574 C-60.13492986 120.81548133 -60.1348494 124.31894288 -60.13366497 127.82243252 C-60.13345975 131.6126129 -60.13899116 135.40278581 -60.14372253 139.19296265 C-60.15200337 146.60736938 -60.1547762 154.02176816 -60.15533491 161.43617913 C-60.15581126 167.46696775 -60.15787193 173.49775377 -60.16103554 179.52854156 C-60.16983484 196.65287717 -60.17445601 213.77720654 -60.17370506 230.90154442 C-60.17364513 232.28421792 -60.17364513 232.28421792 -60.17358398 233.69482422 C-60.17352266 235.07919917 -60.17352266 235.07919917 -60.1734601 236.4915413 C-60.17305376 251.44426154 -60.18262221 266.39695659 -60.19672235 281.34966955 C-60.21110905 296.72843077 -60.21799128 312.10717973 -60.21712857 327.48594785 C-60.21679741 336.1097503 -60.21950897 344.73352633 -60.23030663 353.35732269 C-60.23944183 360.69998784 -60.24156216 368.04261458 -60.2347972 375.38528296 C-60.23154728 379.12588677 -60.23141959 382.86641703 -60.24015045 386.6070137 C-60.37972751 423.79010461 -60.37972751 423.79010461 -41.67578125 455.13818359 C-27.57029412 468.38783218 -10.354617 471.55390311 8.30731201 471.52189636 C9.29419801 471.52416192 10.28108401 471.52642748 11.29787564 471.52876168 C14.57847875 471.53505147 17.85904 471.53427557 21.13964844 471.53344727 C23.50261488 471.53644189 25.86558083 471.53984511 28.22854614 471.54362488 C34.62951892 471.5524381 41.03047831 471.55480186 47.43145657 471.55544066 C51.43543776 471.55593614 55.43941729 471.55822624 59.44339752 471.56093788 C72.70508034 471.56973513 85.9667551 471.5743587 99.22844085 471.57360741 C100.298722 471.57354747 100.298722 471.57354747 101.390625 471.57348633 C102.10502641 471.57344545 102.81942783 471.57340457 103.55547777 471.57336245 C115.12694698 471.5729562 126.69838363 471.58252271 138.26984343 471.59662469 C150.17830061 471.61102178 162.08674193 471.61789305 173.99520802 471.61703092 C180.67006276 471.61670011 187.34488811 471.61959345 194.01973724 471.63020897 C200.30051316 471.63992561 206.58121718 471.63994472 212.8619957 471.63269234 C215.15885651 471.63165093 217.45572189 471.63398281 219.75257492 471.6400528 C243.6373812 471.69905466 263.37973978 470.10965077 281.76171875 453.07568359 C298.13620234 435.75878368 298.31495421 413.94912799 298.28295898 391.5949707 C298.28735538 389.54340409 298.29266083 387.49183925 298.29879761 385.4402771 C298.31022129 381.05339915 298.31575131 376.66656901 298.316679 372.27967644 C298.31863178 365.34156336 298.33674704 358.40354848 298.35743713 351.46546936 C298.40644336 334.24710795 298.43755535 317.02872031 298.45874023 299.81030273 C298.47526046 286.39700327 298.49803182 272.98378929 298.54176098 259.57054716 C298.56353371 252.67361583 298.5715958 245.77684699 298.56936824 238.87988365 C298.57103356 234.59665104 298.58507156 230.31352503 298.60258102 226.03033066 C298.60818414 224.0445629 298.60866245 222.05877309 298.60364342 220.07300377 C298.59751094 217.36283227 298.609717 214.65333486 298.62644958 211.94322205 C298.62023777 211.1577227 298.61402595 210.37222335 298.6076259 209.56292099 C298.67799656 203.30963923 300.27900058 199.40188309 304.32421875 194.70068359 C310.11232714 189.72021823 314.67240223 188.88981613 322.171875 189.10302734 C328.37634828 189.72603498 332.04028138 192.77272935 336.01171875 197.38818359 C339.20537961 202.51546522 339.44135675 206.60471177 339.3993988 212.45452881 C339.40747711 213.80911662 339.40747711 213.80911662 339.41571862 215.19106984 C339.43000729 218.21231735 339.42289187 221.23312726 339.41577148 224.25439453 C339.421475 226.4230942 339.42843918 228.59179086 339.43656921 230.76048279 C339.45452921 236.65168726 339.45332546 242.54274299 339.44762683 248.43396664 C339.44453547 253.36098782 339.45062769 258.28798041 339.45666558 263.21499753 C339.47072193 274.85266575 339.46914357 286.4902606 339.45776367 298.12792969 C339.44631394 310.10086538 339.46030263 322.07357547 339.48716015 334.04649711 C339.5093915 344.3457686 339.51593686 354.64496993 339.51008373 364.9442637 C339.50672676 371.08614492 339.50904361 377.22788247 339.52633476 383.36974335 C339.54191767 389.15810402 339.5377235 394.94613552 339.51902962 400.73448372 C339.51537323 402.84582778 339.51836475 404.95719682 339.52891541 407.06851768 C339.66805222 437.24392942 331.17447655 462.27559585 310.01171875 484.38818359 C298.11152863 496.23829198 283.25913545 505.00606331 267.01171875 509.38818359 C265.75965448 509.75773462 265.75965448 509.75773462 264.48229599 510.13475132 C252.16468292 513.30086336 239.73813939 512.81720478 227.10644531 512.79223633 C224.49322214 512.79794609 221.88000146 512.80491269 219.26678467 512.81303406 C212.93260695 512.83013924 206.59852879 512.83107925 200.26433399 512.82582115 C195.10939679 512.821762 189.95448876 512.82324361 184.79955292 512.82856941 C184.06284998 512.82931783 183.32614704 512.83006626 182.56711976 512.83083736 C181.0699684 512.83236901 179.57281704 512.83390736 178.07566568 512.83545233 C164.067738 512.84914789 150.05986631 512.84376088 136.05193993 512.83226711 C123.27414506 512.82234204 110.49649514 512.83526806 97.71872261 512.8592013 C84.55805304 512.88366351 71.39745077 512.89318249 58.23675895 512.88654858 C50.86428089 512.88307157 43.49191414 512.88518695 36.11945343 512.90279961 C29.1819189 512.91916938 22.24466381 512.91422978 15.30713654 512.89549446 C12.77329559 512.89182912 10.23943392 512.8948564 7.70561218 512.90538025 C-23.99209178 513.02689427 -49.5941147 505.77747093 -72.98828125 483.38818359 C-90.81721522 465.48389977 -101.2164538 441.05825884 -101.39417356 415.76610398 C-101.38816352 414.4962395 -101.38215347 413.22637501 -101.3759613 411.91802979 C-101.38014589 410.51633905 -101.38562951 409.1146517 -101.39228112 407.7129705 C-101.40660746 403.9027483 -101.40253163 400.09274475 -101.3951143 396.28251123 C-101.39035276 392.15692834 -101.40291877 388.03139076 -101.41313171 383.90582275 C-101.43026774 375.8390813 -101.43117045 367.77241792 -101.42591881 359.705663 C-101.42186566 353.14340508 -101.42333422 346.5811701 -101.42866707 340.01891327 C-101.42941549 339.08238432 -101.43016391 338.14585537 -101.43093501 337.18094675 C-101.43246661 335.27793139 -101.43400496 333.37491603 -101.43554998 331.47190067 C-101.44925658 313.6526482 -101.44385061 295.83343971 -101.43236477 278.01418826 C-101.42243741 261.74448108 -101.43536775 245.47488771 -101.45929896 229.20519808 C-101.48373555 212.46465243 -101.49328645 195.72415968 -101.48664623 178.98359656 C-101.48316373 169.59903895 -101.4853216 160.21456877 -101.50289726 150.83002472 C-101.51767654 142.8400641 -101.5181805 134.85025248 -101.50082635 126.86029461 C-101.49236026 122.79113867 -101.49005792 118.72224823 -101.50547791 114.65310669 C-101.62394417 80.90869257 -96.04059993 53.5200219 -71.98828125 28.38818359 C-52.62438549 9.10578044 -27.11803044 -0.12525074 0 0 Z " fill="#000000" transform="translate(136.98828125,-0.38818359375)"/>
<path d="M0 0 C0.85207031 0.32742187 1.70414062 0.65484375 2.58203125 0.9921875 C17.33360529 7.35743362 29.37858759 23.16143231 40.52001953 34.27978516 C42.90670732 36.6609482 45.3025821 39.03264454 47.70059776 41.40239143 C50.02316832 43.70171907 52.33504318 46.01175841 54.6484375 48.3203125 C55.92356705 49.57692184 55.92356705 49.57692184 57.22445679 50.85891724 C64.03538088 57.69533791 69.47883412 64.60750494 72.8125 73.75 C73.40998047 75.35101563 73.40998047 75.35101563 74.01953125 76.984375 C79.24843335 93.06689461 76.71027408 110.85073862 69.3125 125.6875 C60.80374776 140.37471806 47.70616825 149.97427413 31.66113281 155.05786133 C25.56276342 156.53716983 19.35355394 156.32503677 13.11328125 156.3359375 C11.76580165 156.34238146 10.41832339 156.34911094 9.07084656 156.35610962 C6.25431076 156.36803279 3.43789711 156.37179578 0.62133789 156.37060547 C-2.95123865 156.37040298 -6.52301345 156.39765336 -10.09540081 156.43214989 C-12.87790878 156.45462084 -15.66023027 156.45843686 -18.4428196 156.45738602 C-20.38842827 156.4608299 -22.33397874 156.48236658 -24.27946472 156.50448608 C-40.71506222 156.42121404 -54.81695063 150.65785233 -66.71875 139.33984375 C-79.70131925 126.0238181 -84.3040719 111.35518601 -84.3359375 93.11328125 C-84.34238146 91.76580165 -84.34911094 90.41832339 -84.35610962 89.07084656 C-84.36803279 86.25431076 -84.37179578 83.43789711 -84.37060547 80.62133789 C-84.37040298 77.04876135 -84.39765336 73.47698655 -84.43214989 69.90459919 C-84.45462084 67.12209122 -84.45843686 64.33976973 -84.45738602 61.5571804 C-84.4608299 59.61157173 -84.48236658 57.66602126 -84.50448608 55.72053528 C-84.42121404 39.28493778 -78.65785233 25.18304937 -67.33984375 13.28125 C-49.65507115 -3.96066519 -23.00812275 -9.91220124 0 0 Z M-39.5625 43.90234375 C-44.06693308 50.56941657 -44.15733978 57.2332106 -44.16796875 65.0546875 C-44.17129715 65.91506622 -44.17462555 66.77544495 -44.17805481 67.66189575 C-44.18309956 69.47560088 -44.1854639 71.28931521 -44.18530273 73.10302734 C-44.18748748 75.85920699 -44.20566451 78.61498486 -44.22460938 81.37109375 C-44.22754427 83.14062364 -44.22952842 84.91015542 -44.23046875 86.6796875 C-44.23765427 87.49452606 -44.24483978 88.30936462 -44.25224304 89.14889526 C-44.22166587 96.90949228 -43.16892353 103.87890635 -38 110 C-30.77267622 115.71390983 -23.87947459 116.1558277 -14.9453125 116.16796875 C-14.08493378 116.17129715 -13.22455505 116.17462555 -12.33810425 116.17805481 C-10.52439912 116.18309956 -8.71068479 116.1854639 -6.89697266 116.18530273 C-4.14079301 116.18748748 -1.38501514 116.20566451 1.37109375 116.22460938 C3.14062364 116.22754427 4.91015542 116.22952842 6.6796875 116.23046875 C7.49452606 116.23765427 8.30936462 116.24483978 9.14889526 116.25224304 C16.90949228 116.22166587 23.87890635 115.16892353 30 110 C34.7294585 104.83378412 35.57071952 99.99504333 35.6640625 93.125 C33.80539921 84.37834924 26.64515186 78.20426452 20.53515625 72.13671875 C19.16876259 70.76601982 19.16876259 70.76601982 17.77476501 69.36763 C15.85735688 67.44582787 13.93470249 65.52948303 12.00805664 63.61694336 C9.54895982 61.17498523 7.10364609 58.71973533 4.66208744 56.26025677 C2.31456641 53.89924933 -0.04436166 51.54977905 -2.40234375 49.19921875 C-3.2743895 48.32110031 -4.14643524 47.44298187 -5.04490662 46.53825378 C-10.79078031 40.85829914 -15.43566787 36.58954199 -23.875 36.5 C-30.74487302 36.70430849 -35.17968513 38.56626664 -39.5625 43.90234375 Z " fill="#000000" transform="translate(400,4)"/>
<path d="M0 0 C1.03685318 -0.00765109 2.07370636 -0.01530219 3.14197934 -0.02318513 C6.60960032 -0.04379099 10.07655562 -0.03587162 13.54421997 -0.02792358 C16.03308728 -0.03661958 18.52194923 -0.04698647 21.01080322 -0.05889893 C27.06557352 -0.08290202 33.12008307 -0.087984 39.17487703 -0.0832984 C44.09789875 -0.07972839 49.0208667 -0.08323914 53.94388199 -0.09174728 C54.64527681 -0.09293766 55.34667163 -0.09412804 56.06932084 -0.09535449 C57.49433652 -0.09777806 58.9193522 -0.10020633 60.34436788 -0.10263924 C73.70056877 -0.12437925 87.05666862 -0.12007057 100.41287519 -0.10786955 C112.62174601 -0.09753283 124.8302976 -0.12003938 137.03910528 -0.15806599 C149.58592824 -0.19684472 162.13260027 -0.21333095 174.67948353 -0.20581949 C181.71928929 -0.20199858 188.7588234 -0.20693939 195.79858017 -0.23524857 C202.41924458 -0.26160376 209.03937621 -0.25652695 215.66007614 -0.23042679 C218.08804032 -0.22569391 220.5160494 -0.23116959 222.9439621 -0.24767303 C226.26269835 -0.26860276 229.57928955 -0.25241625 232.89794922 -0.22705078 C233.85525967 -0.24179935 234.81257013 -0.25654792 235.79888999 -0.27174342 C242.80265382 -0.15937973 247.26558867 1.97272475 252.57595825 6.52139282 C257.16053324 11.88870013 257.3022619 17.11275723 257.087677 24.06826782 C256.31994745 29.24897714 254.39788743 32.94628099 250.57595825 36.52139282 C244.69304503 40.64504123 240.2365925 41.09846472 233.1519165 41.04278564 C232.11506332 41.05043674 231.07821014 41.05808783 230.00993717 41.06597078 C226.54231619 41.08657664 223.07536089 41.07865726 219.60769653 41.07070923 C217.11882922 41.07940523 214.62996727 41.08977212 212.14111328 41.10168457 C206.08634298 41.12568766 200.03183343 41.13076964 193.97703947 41.12608404 C189.05401775 41.12251403 184.13104981 41.12602479 179.20803452 41.13453293 C178.15594229 41.1363185 178.15594229 41.1363185 177.08259567 41.13814013 C175.65757998 41.14056371 174.2325643 41.14299198 172.80754863 41.14542489 C159.45134773 41.1671649 146.09524789 41.16285621 132.73904131 41.1506552 C120.53017049 41.14031847 108.3216189 41.16282503 96.11281122 41.20085163 C83.56598826 41.23963037 71.01931624 41.25611659 58.47243297 41.24860513 C51.43262721 41.24478423 44.39309311 41.24972503 37.35333633 41.27803421 C30.73267192 41.3043894 24.11254029 41.29931259 17.49184036 41.27321243 C15.06387618 41.26847956 12.63586711 41.27395524 10.20795441 41.29045868 C6.88921815 41.3113884 3.57262696 41.29520189 0.25396729 41.26983643 C-0.70334317 41.284585 -1.66065363 41.29933357 -2.64697349 41.31452906 C-9.65073732 41.20216538 -14.11367217 39.07006089 -19.42404175 34.52139282 C-24.00861674 29.15408552 -24.1503454 23.93002841 -23.9357605 16.97451782 C-23.16803095 11.79380851 -21.24597092 8.09650465 -17.42404175 4.52139282 C-11.54112852 0.39774441 -7.084676 -0.05567907 0 0 Z " fill="#000000" transform="translate(139.42404174804688,275.4786071777344)"/>
<path d="M0 0 C1.03685318 -0.00765109 2.07370636 -0.01530219 3.14197934 -0.02318513 C6.60960032 -0.04379099 10.07655562 -0.03587162 13.54421997 -0.02792358 C16.03308728 -0.03661958 18.52194923 -0.04698647 21.01080322 -0.05889893 C27.06557352 -0.08290202 33.12008307 -0.087984 39.17487703 -0.0832984 C44.09789875 -0.07972839 49.0208667 -0.08323914 53.94388199 -0.09174728 C54.64527681 -0.09293766 55.34667163 -0.09412804 56.06932084 -0.09535449 C57.49433652 -0.09777806 58.9193522 -0.10020633 60.34436788 -0.10263924 C73.70056877 -0.12437925 87.05666862 -0.12007057 100.41287519 -0.10786955 C112.62174601 -0.09753283 124.8302976 -0.12003938 137.03910528 -0.15806599 C149.58592824 -0.19684472 162.13260027 -0.21333095 174.67948353 -0.20581949 C181.71928929 -0.20199858 188.7588234 -0.20693939 195.79858017 -0.23524857 C202.41924458 -0.26160376 209.03937621 -0.25652695 215.66007614 -0.23042679 C218.08804032 -0.22569391 220.5160494 -0.23116959 222.9439621 -0.24767303 C226.26269835 -0.26860276 229.57928955 -0.25241625 232.89794922 -0.22705078 C233.85525967 -0.24179935 234.81257013 -0.25654792 235.79888999 -0.27174342 C242.80265382 -0.15937973 247.26558867 1.97272475 252.57595825 6.52139282 C257.16053324 11.88870013 257.3022619 17.11275723 257.087677 24.06826782 C256.31994745 29.24897714 254.39788743 32.94628099 250.57595825 36.52139282 C244.69304503 40.64504123 240.2365925 41.09846472 233.1519165 41.04278564 C232.11506332 41.05043674 231.07821014 41.05808783 230.00993717 41.06597078 C226.54231619 41.08657664 223.07536089 41.07865726 219.60769653 41.07070923 C217.11882922 41.07940523 214.62996727 41.08977212 212.14111328 41.10168457 C206.08634298 41.12568766 200.03183343 41.13076964 193.97703947 41.12608404 C189.05401775 41.12251403 184.13104981 41.12602479 179.20803452 41.13453293 C178.15594229 41.1363185 178.15594229 41.1363185 177.08259567 41.13814013 C175.65757998 41.14056371 174.2325643 41.14299198 172.80754863 41.14542489 C159.45134773 41.1671649 146.09524789 41.16285621 132.73904131 41.1506552 C120.53017049 41.14031847 108.3216189 41.16282503 96.11281122 41.20085163 C83.56598826 41.23963037 71.01931624 41.25611659 58.47243297 41.24860513 C51.43262721 41.24478423 44.39309311 41.24972503 37.35333633 41.27803421 C30.73267192 41.3043894 24.11254029 41.29931259 17.49184036 41.27321243 C15.06387618 41.26847956 12.63586711 41.27395524 10.20795441 41.29045868 C6.88921815 41.3113884 3.57262696 41.29520189 0.25396729 41.26983643 C-0.70334317 41.284585 -1.66065363 41.29933357 -2.64697349 41.31452906 C-9.65073732 41.20216538 -14.11367217 39.07006089 -19.42404175 34.52139282 C-24.00861674 29.15408552 -24.1503454 23.93002841 -23.9357605 16.97451782 C-23.16803095 11.79380851 -21.24597092 8.09650465 -17.42404175 4.52139282 C-11.54112852 0.39774441 -7.084676 -0.05567907 0 0 Z " fill="#000000" transform="translate(139.42404174804688,195.47860717773438)"/>
<path d="M0 0 C1.29354401 -0.01022186 2.58708801 -0.02044373 3.91983032 -0.03097534 C7.45308131 -0.05765473 10.98590312 -0.05892415 14.51923513 -0.05384874 C17.47631333 -0.05170221 20.43330595 -0.06149422 23.39036572 -0.07105958 C30.37098661 -0.09321553 37.35139224 -0.09414454 44.33203125 -0.08203125 C51.51627093 -0.06995568 58.69972683 -0.09456974 65.88383281 -0.13717139 C72.06755346 -0.17248266 78.25102551 -0.18439372 84.43484318 -0.1778959 C88.12127777 -0.17428199 91.80715331 -0.17942188 95.49349594 -0.20732498 C99.60815495 -0.23730733 103.72123435 -0.21847494 107.8359375 -0.1953125 C109.04558167 -0.21059998 110.25522583 -0.22588745 111.50152588 -0.24163818 C119.24879981 -0.14543693 124.23064097 1.31355874 130.04736328 6.54931641 C134.63193827 11.91662371 134.77366693 17.14068081 134.55908203 24.09619141 C133.79135248 29.27690072 131.86929246 32.97420457 128.04736328 36.54931641 C121.63750197 41.29058066 115.89204504 41.13046494 108.09472656 41.09863281 C106.80118256 41.10885468 105.50763855 41.11907654 104.17489624 41.12960815 C100.64164525 41.15628755 97.10882344 41.15755696 93.57549143 41.15248156 C90.61841323 41.15033502 87.66142062 41.16012704 84.70436084 41.1696924 C77.72373995 41.19184835 70.74333432 41.19277735 63.76269531 41.18066406 C56.57845563 41.16858849 49.39499974 41.19320255 42.21089375 41.2358042 C36.02717311 41.27111547 29.84370105 41.28302653 23.65988338 41.27652872 C19.97344879 41.2729148 16.28757325 41.27805469 12.60123062 41.30595779 C8.48657161 41.33594014 4.37349221 41.31710775 0.25878906 41.29394531 C-0.9508551 41.30923279 -2.16049927 41.32452026 -3.40679932 41.340271 C-11.15407325 41.24406974 -16.13591441 39.78507407 -21.95263672 34.54931641 C-26.53721171 29.1820091 -26.67894037 23.957952 -26.46435547 17.00244141 C-25.69662592 11.82173209 -23.7745659 8.12442824 -19.95263672 4.54931641 C-13.54277541 -0.19194785 -7.79731847 -0.03183213 0 0 Z " fill="#000000" transform="translate(141.95263671875,355.45068359375)"/>
</svg>
